<svg width="341" height="325" viewBox="0 0 341 325" fill="none" xmlns="http://www.w3.org/2000/svg">
<path d="M218.615 316.253L217.112 316.207L215.653 314.715L215.921 306.044L217.038 269.916C217.351 259.8 216.116 251.082 211.829 243.717C246.587 239.006 284.709 222.826 286.72 157.795C287.256 140.453 281.734 124.371 271.612 111.039C274.887 102.461 276.882 86.6109 269.991 66.1464L265.614 61.6715C265.614 61.6715 262.652 60.1334 259.645 60.0405C250.625 59.7615 237.004 62.2334 214.006 75.9875C202.023 74.1705 188.581 70.8618 173.547 70.3969C158.512 69.932 144.936 70.9588 131.316 73.4307C110.67 59.7735 95.7247 56.4184 86.704 56.1394C83.6971 56.0465 82.149 57.4451 80.6455 57.3986C79.1421 57.3521 76.0458 60.1495 76.0011 61.5946C67.8583 81.5942 68.8702 97.5372 71.609 106.301C60.6827 118.982 54.1773 134.693 53.6411 152.034C51.675 215.621 90.2284 234.171 123.081 242.419C121.488 245.263 119.85 249.552 118.213 253.841C115.161 255.193 110.606 256.499 104.593 256.313C98.5788 256.127 92.6097 254.496 88.2334 250.021L86.7746 248.529C85.3159 247.038 85.3606 245.593 83.8571 245.546L82.3983 244.055L80.9396 242.563C80.9843 241.118 69.4929 223.404 48.4893 221.308C40.9721 221.076 34.8689 223.78 33.2314 228.069C30.0011 235.202 38.843 241.261 43.264 244.291C43.264 244.291 52.1506 248.905 57.6729 264.988C60.367 275.197 73.3171 294.402 104.89 295.378L115.414 295.704L114.788 315.936L113.24 317.334C113.24 317.334 111.736 317.288 113.24 317.334C46.3891 289.23 3.16245 227.139 5.26266 159.217C7.98847 71.0638 83.847 2.52969 175.557 5.36548C267.268 8.20126 338.747 81.2912 336.021 169.445C333.921 237.367 286.941 296.668 218.615 316.253V316.253Z" fill="black" fill-opacity="0.05"/>
</svg>
